PathFileType  4	(X/Y/Z) C:\Users\antoi\Documents\MyRepositories\mobilecap\ResultsAnalysis
DataRate	CameraRate	NumFrames	NumMarkers	Units	OrigDataRate	OrigDataStartFrame	OrigNumFrames
100.0	100.0	4	51	mm	100.0	55	216
Frame#	Time	r_knee			r_shank_antsup			r_ankle			r_calc			r_5meta			r_toe			L_knee			L_shank_antsup			L_ankle			L_calc			L_5meta			L_toe			r_sh2			r_sh3			r_sh4			L_sh2			L_sh3			r_thigh1			r_thigh2			r_thigh3			r_thigh4			r_thigh5			L_thigh1			L_thigh2			L_thigh3			L_thigh4			r.ASIS			r.PSIS			L.ASIS			L.PSIS			C7			R_Shoulder			L_Shoulder			R_Sternum			L_Sternum			R_humerus			R_elbow_med			R_elbow_lat			R_forearm			R_wrist_radius			R_wrist_ulna			L_humerus			L_elbow_med			L_elbow_lat			L_forearm			L_wrist_radius			L_wrist_ulna			R_HJC			L_HJC			R_HJC_reg			L_HJC_reg			
		X1	Y1	Z1	X2	Y2	Z2	X3	Y3	Z3	X4	Y4	Z4	X5	Y5	Z5	X6	Y6	Z6	X7	Y7	Z7	X8	Y8	Z8	X9	Y9	Z9	X10	Y10	Z10	X11	Y11	Z11	X12	Y12	Z12	X13	Y13	Z13	X14	Y14	Z14	X15	Y15	Z15	X16	Y16	Z16	X17	Y17	Z17	X18	Y18	Z18	X19	Y19	Z19	X20	Y20	Z20	X21	Y21	Z21	X22	Y22	Z22	X23	Y23	Z23	X24	Y24	Z24	X25	Y25	Z25	X26	Y26	Z26	X27	Y27	Z27	X28	Y28	Z28	X29	Y29	Z29	X30	Y30	Z30	X31	Y31	Z31	X32	Y32	Z32	X33	Y33	Z33	X34	Y34	Z34	X35	Y35	Z35	X36	Y36	Z36	X37	Y37	Z37	X38	Y38	Z38	X39	Y39	Z39	X40	Y40	Z40	X41	Y41	Z41	X42	Y42	Z42	X43	Y43	Z43	X44	Y44	Z44	X45	Y45	Z45	X46	Y46	Z46	X47	Y47	Z47	X48	Y48	Z48	X49	Y49	Z49	X50	Y50	Z50	X51	Y51	Z51	

55	0.54000000	-944.23297	715.68348	-439.04824	-933.53173	631.41720	-465.30927	-1194.99791	412.31416	-469.84875	-1279.00797	387.17178	-501.19712	-1107.25823	351.06242	-436.24560	-1059.11321	369.43526	-496.96131	-862.39993	737.98025	-739.25678	-877.32378	643.20237	-741.27166	-1137.11628	468.89840	-711.20098	-1215.12318	474.74298	-667.65581	-1080.93941	366.95872	-751.31570	-1031.91378	365.81596	-697.31875	-1017.44970	553.61739	-444.28569	-982.90184	685.52535	-423.10855	-1065.60819	606.32597	-422.23789	-934.39069	711.01178	-749.37890	-1020.97558	623.98356	-751.14237	-967.36418	1034.25298	-401.09615	-941.31431	924.81340	-407.63233	-992.42673	887.90146	-387.75065	-1077.08734	1007.07610	-397.82047	-1045.70758	894.05136	-404.11364	-953.34411	991.52207	-784.35905	-879.06489	876.06373	-764.56306	-1047.44917	936.06122	-739.50649	-967.77898	819.35018	-735.15824	-959.23896	1148.10931	-446.04801	-1113.56013	1255.31666	-540.88343	-940.83958	1125.25614	-694.32012	-1108.77093	1254.54316	-644.64347	-908.56616	1613.85341	-561.66874	-835.22598	1536.68617	-382.33983	-803.91589	1562.32305	-722.69802	-786.91374	1529.90347	-526.03969	-778.98004	1532.30039	-563.13611	-835.97458	1414.21845	-314.88776	-829.06155	1191.62465	-351.40564	-818.68707	1213.96386	-283.29628	-675.02751	1192.62397	-287.98977	-555.66641	1155.82492	-306.03627	-556.05034	1126.51342	-286.48630	-800.63434	1457.32835	-794.79877	-883.78446	1227.25256	-806.44190	-840.50615	1261.43407	-866.48191	-755.41557	1186.67402	-825.91271	-669.35600	1065.60576	-798.56079	-676.85945	1054.64024	-828.72763	-1060.50259	1104.67258	-474.48441	-1044.92642	1091.57304	-679.94951	-1050.50608	1099.05263	-484.64296	-1042.89834	1097.82503	-649.46271	
56	0.55000000	-942.83348	712.93664	-437.50390	-932.12417	628.45572	-463.94850	-1195.18843	411.75364	-470.23469	-1279.23035	386.43021	-501.79025	-1107.48550	350.84045	-435.90312	-1059.15878	369.16802	-496.60113	-844.65074	743.02212	-741.30494	-860.97060	648.64909	-743.29182	-1120.40131	478.49269	-712.72060	-1197.49064	491.28462	-667.20169	-1074.50419	370.51247	-751.07535	-1025.34637	364.59968	-697.28183	-1016.75277	551.30537	-443.41618	-981.25778	682.83468	-421.79084	-1064.77023	604.17413	-421.68959	-917.19500	717.12711	-750.12879	-1004.71118	631.57931	-751.60008	-959.38832	1032.16020	-399.61497	-935.79824	922.35891	-405.58335	-987.74869	886.31645	-386.21183	-1069.84487	1007.13789	-397.08219	-1040.67968	893.54989	-403.18212	-941.87030	994.27122	-784.76595	-864.53444	880.42429	-765.80615	-1034.17854	936.01850	-739.05051	-951.38835	821.41830	-735.93856	-949.80696	1148.32751	-444.88821	-1104.84621	1254.31719	-539.89161	-931.07537	1126.34695	-693.40488	-1100.34622	1253.30500	-643.65672	-906.34961	1615.28485	-560.27837	-830.94953	1541.43455	-381.33592	-800.45530	1568.03804	-722.56522	-782.62209	1533.24150	-523.96659	-774.55793	1535.89484	-562.32747	-827.36879	1420.55731	-312.22093	-811.76539	1197.83237	-345.52249	-801.87915	1221.70282	-277.69700	-657.33209	1211.77657	-283.62677	-535.45166	1185.22237	-302.33078	-533.19305	1156.04053	-282.65796	-797.59284	1463.40634	-794.92809	-880.97897	1234.28807	-813.08539	-835.87998	1269.06920	-870.56209	-748.54272	1198.32635	-828.30691	-656.97315	1082.14593	-798.40540	-663.68524	1070.90391	-828.26840	-1050.52962	1103.96992	-473.62855	-1034.69817	1091.34855	-679.10377	-1040.44464	1099.28511	-483.16034	-1033.29129	1097.67515	-648.12236	
57	0.56000000	-941.48057	710.91820	-435.79068	-930.85127	626.14743	-462.45303	-1195.17521	411.51714	-470.51992	-1279.13908	386.03604	-502.32910	-1107.65272	350.70203	-435.68053	-1059.15351	368.91263	-496.35666	-826.72783	748.92051	-743.47668	-844.24667	654.80858	-744.63499	-1102.17070	486.83562	-714.31554	-1177.04341	506.78713	-667.12654	-1067.42032	373.57817	-751.15226	-1018.62080	362.66969	-697.42931	-1015.98499	549.48840	-442.60378	-979.82065	680.91164	-420.60743	-1064.14634	602.87070	-420.75825	-899.91036	723.74710	-750.45621	-987.85894	639.38660	-751.93028	-951.16053	1030.53647	-397.93454	-930.13892	920.19813	-403.70657	-983.00982	885.30921	-384.78841	-1062.29927	1007.86380	-396.47967	-1035.58181	893.72307	-402.23328	-930.02626	997.83826	-785.40987	-849.83685	885.38990	-767.19932	-1020.53853	936.90823	-738.70427	-934.84653	824.43059	-737.10642	-939.73615	1149.28935	-443.18576	-1095.66338	1253.94888	-538.78209	-920.76431	1128.53504	-692.38859	-1091.46322	1252.89173	-642.49743	-903.84220	1617.30287	-559.38698	-826.29466	1547.17000	-380.75102	-797.78143	1574.45096	-721.99328	-778.13761	1537.61361	-522.54678	-769.83355	1539.96263	-561.84849	-818.15153	1428.12807	-309.90358	-794.09069	1205.65398	-340.07724	-784.77525	1230.89718	-272.32907	-640.44701	1232.18322	-279.62628	-517.02583	1215.78142	-298.98760	-512.10837	1186.79280	-279.27725	-794.54413	1470.40935	-795.32408	-877.91515	1241.98809	-819.30646	-831.51345	1277.76179	-874.53512	-742.37467	1210.91396	-830.84759	-647.17782	1099.43467	-797.63229	-652.07397	1088.04377	-827.89383	-1039.95283	1103.97335	-472.62880	-1023.76792	1092.03061	-678.11849	-1029.78616	1100.01494	-481.28369	-1023.08911	1098.32721	-646.65671	
58	0.57000000	-939.91281	709.51562	-434.28008	-929.65756	624.73702	-460.79785	-1194.77280	411.64880	-470.58666	-1278.97635	386.27789	-502.87271	-1107.71588	350.62924	-435.59613	-1059.00724	368.58864	-496.18837	-809.08426	755.33922	-745.49737	-827.04717	661.69739	-746.16987	-1083.50348	493.52672	-715.77816	-1154.36303	520.61778	-666.97880	-1060.63391	375.38785	-750.91049	-1012.45691	360.25565	-698.04834	-1015.20938	548.34295	-441.67657	-978.43082	679.73833	-419.16917	-1063.30851	602.29312	-419.99792	-882.67777	731.02760	-750.72155	-970.64145	647.00154	-752.06825	-942.68920	1029.56989	-396.05695	-924.18488	918.53837	-402.15753	-977.98670	885.03336	-383.55365	-1054.33526	1009.35560	-395.87860	-1030.29022	894.60679	-401.33025	-917.78112	1001.90458	-785.91505	-835.14477	890.91236	-768.50751	-1006.64165	938.92249	-738.46777	-918.54315	828.32643	-738.44990	-929.06048	1150.93437	-441.13351	-1086.09737	1254.16767	-537.49149	-909.98437	1131.75850	-691.13717	-1082.17795	1253.43773	-641.04428	-900.90382	1620.17084	-558.72886	-821.27246	1553.90607	-380.37026	-795.91557	1581.20876	-720.67196	-773.37152	1542.93080	-521.74304	-765.00928	1544.92612	-561.59567	-808.39787	1436.89896	-307.91020	-776.49580	1214.93804	-334.66778	-767.58111	1241.75455	-267.28421	-624.41171	1253.59363	-275.85425	-500.38424	1246.97875	-295.98561	-492.92518	1218.34306	-276.45264	-791.58235	1478.31281	-795.99886	-873.41934	1249.87686	-823.71198	-827.31994	1287.41617	-878.61129	-736.92118	1224.19570	-833.49487	-639.66046	1117.09924	-796.52414	-641.76123	1105.73143	-828.09111	-1028.84063	1104.65290	-471.48341	-1012.26293	1093.65493	-676.99415	-1018.52765	1101.02874	-479.24932	-1012.25120	1099.86047	-645.09162	
